<svg width="40" height="20" viewBox="0 0 40 20" fill="none" xmlns="http://www.w3.org/2000/svg">
<g clip-path="url(#clip0_301_63)">
<path d="M8.37324 15.1232H8.17412C7.92522 15.5159 7.80077 15.8616 7.80077 16.1603C7.80077 16.4866 8.41472 16.6498 9.64262 16.6498C9.65369 16.6498 9.67028 16.6498 9.6924 16.6498C10.3229 16.6553 10.6382 16.4672 10.6382 16.0856C10.6382 15.9528 10.6023 15.8325 10.5304 15.7247C10.4585 15.6168 10.352 15.5297 10.2109 15.4633C10.0699 15.397 9.93024 15.3417 9.79196 15.2974C9.65369 15.2532 9.48499 15.22 9.28587 15.1978C9.08675 15.1757 8.92773 15.1591 8.80881 15.1481C8.68989 15.137 8.5447 15.1287 8.37324 15.1232ZM9.23609 10.5351C9.68964 10.5351 9.91641 9.89353 9.91641 8.61032C9.91641 7.29392 9.70347 6.63572 9.27757 6.63572C9.17248 6.63572 9.07984 6.66338 8.99963 6.71869C8.91943 6.774 8.85583 6.85835 8.80881 6.97174C8.7618 7.08512 8.72308 7.20128 8.69266 7.32019C8.66224 7.43911 8.64011 7.58845 8.62629 7.76821C8.61246 7.94797 8.60416 8.10284 8.6014 8.23282C8.59863 8.3628 8.59725 8.52459 8.59725 8.71818C8.59725 9.92948 8.8102 10.5351 9.23609 10.5351ZM8.12434 12.9661C8.12434 13.0988 8.21975 13.2094 8.41057 13.2979C8.6014 13.3864 8.84891 13.4597 9.15312 13.5178C9.45733 13.5759 9.79335 13.6353 10.1612 13.6962C10.529 13.757 10.8982 13.8358 11.2688 13.9326C11.6393 14.0294 11.9767 14.1469 12.281 14.2852C12.5852 14.4235 12.8327 14.6171 13.0235 14.866C13.2143 15.1149 13.3097 15.4053 13.3097 15.7371C13.3097 16.1962 13.242 16.5986 13.1065 16.9443C12.971 17.29 12.7912 17.5665 12.5672 17.774C12.3432 17.9814 12.0652 18.1487 11.7334 18.2759C11.4015 18.4031 11.0641 18.4902 10.7212 18.5372C10.3783 18.5843 9.99661 18.6078 9.57625 18.6078C6.9158 18.6078 5.58557 17.9579 5.58557 16.6581C5.58557 16.2764 5.69066 15.8961 5.90084 15.5173C6.11102 15.1384 6.38481 14.8273 6.72221 14.5839C6.49544 14.4677 6.27696 14.3308 6.06678 14.1732C5.85659 14.0156 5.7515 13.8649 5.7515 13.721C5.7515 13.4058 6.11932 12.7808 6.85496 11.846C6.29078 10.8172 6.0087 9.78291 6.0087 8.74307C6.0087 8.21208 6.07092 7.7129 6.19537 7.24552C6.31982 6.77815 6.50926 6.35087 6.76369 5.96369C7.01812 5.57652 7.36243 5.26954 7.79662 5.04277C8.23081 4.81599 8.73276 4.70261 9.30246 4.70261C10.1542 4.70261 10.7959 4.93215 11.2273 5.39123C11.631 4.93215 12.3086 4.70261 13.26 4.70261H13.6084L13.3761 6.70209C12.8285 6.70209 12.4331 6.82378 12.1897 7.06715C12.422 7.48198 12.5381 8.10976 12.5381 8.95048C12.5381 9.44275 12.4649 9.91013 12.3183 10.3526C12.1717 10.7951 11.9615 11.1878 11.6877 11.5307C11.414 11.8737 11.0627 12.1447 10.6341 12.3438C10.2054 12.5429 9.73112 12.6425 9.2112 12.6425C9.11164 12.6425 8.98719 12.6314 8.83785 12.6093C8.68851 12.5872 8.56406 12.565 8.4645 12.5429L8.31516 12.518C8.18795 12.7669 8.12434 12.9163 8.12434 12.9661Z" fill="#767676"/>
<path d="M14.2057 4.00568V1.39224H17.0017V4.00568H14.2057ZM14.2057 15.7786V4.9515H17.0017V15.7786H14.2057Z" fill="#767676"/>
<path d="M20.1379 15.7786L17.8895 4.95148H20.5112L21.5815 12.2608L22.4858 4.95148H25.1075L22.967 15.7786H20.1379Z" fill="#767676"/>
<path d="M28.6419 9.13301H29.7288V7.63961C29.7288 7.09204 29.5435 6.81825 29.1729 6.81825C28.8189 6.81825 28.6419 7.09204 28.6419 7.63961V9.13301ZM25.8459 12.9661V8.36142C25.8459 7.21095 26.1197 6.31354 26.6673 5.66916C27.2149 5.02479 28.0501 4.70261 29.1729 4.70261C30.3012 4.70261 31.1378 5.02341 31.6826 5.66502C32.2274 6.30662 32.4998 7.20542 32.4998 8.36142V10.6015H28.6419V12.9992C28.6419 13.6077 28.8189 13.9119 29.1729 13.9119C29.5601 13.9119 29.7537 13.5855 29.7537 12.9329V11.7464H32.4998V12.9661C32.4998 13.8676 32.1735 14.6019 31.5208 15.1688C30.8682 15.7357 30.0855 16.0192 29.1729 16.0192C28.2603 16.0192 27.4776 15.7344 26.825 15.1647C26.1723 14.595 25.8459 13.8621 25.8459 12.9661Z" fill="#767676"/>
<path d="M33.3129 13.1652L35.4534 12.4019C35.5088 12.5678 35.553 12.6964 35.5862 12.7877C35.6194 12.8789 35.6761 13.0117 35.7563 13.1859C35.8365 13.3601 35.9139 13.4943 35.9886 13.5883C36.0632 13.6823 36.16 13.7694 36.279 13.8496C36.3979 13.9298 36.5237 13.9699 36.6565 13.9699C37.0049 13.9699 37.1791 13.7653 37.1791 13.356C37.1791 13.2067 37.1446 13.0532 37.0754 12.8955C37.0063 12.7379 36.9344 12.6024 36.8597 12.489C36.7851 12.3756 36.6551 12.2277 36.4698 12.0451C36.2845 11.8626 36.1421 11.7271 36.0425 11.6386C35.9429 11.5501 35.7687 11.4008 35.5198 11.1906L35.0635 10.8006C34.4717 10.2862 34.0071 9.78015 33.6697 9.28235C33.3323 8.78455 33.1636 8.23144 33.1636 7.62303C33.1636 7.15288 33.2618 6.72837 33.4581 6.34949C33.6545 5.97061 33.9186 5.66502 34.2504 5.43271C34.5823 5.20041 34.9543 5.02203 35.3663 4.89758C35.7784 4.77313 36.2112 4.71091 36.6648 4.71091C37.0685 4.71091 37.4557 4.79664 37.8263 4.9681C38.1969 5.13957 38.5218 5.36772 38.8011 5.65257C39.0805 5.93743 39.3224 6.25823 39.5271 6.61498C39.7317 6.97174 39.8894 7.34647 40 7.73918L37.9922 8.4278C37.9258 8.26187 37.8705 8.12497 37.8263 8.01712C37.782 7.90926 37.7115 7.76822 37.6147 7.59399C37.5179 7.41976 37.4239 7.2801 37.3326 7.17501C37.2414 7.06992 37.1294 6.97727 36.9966 6.89707C36.8639 6.81687 36.7256 6.77677 36.5818 6.77677C36.3882 6.77677 36.2375 6.84591 36.1296 6.98418C36.0218 7.12246 35.9678 7.2801 35.9678 7.45709C35.9678 7.70046 36.102 7.97287 36.3702 8.27431C36.6385 8.57575 37.0077 8.92283 37.4778 9.31554L37.9922 9.77185C38.2688 10.0208 38.508 10.2544 38.7099 10.4729C38.9118 10.6914 39.1136 10.9389 39.3155 11.2155C39.5174 11.492 39.6723 11.7824 39.7801 12.0866C39.888 12.3908 39.9419 12.695 39.9419 12.9992C39.9419 13.8732 39.6336 14.595 39.0168 15.1647C38.4001 15.7344 37.6548 16.0192 36.7809 16.0192C35.9346 16.0192 35.2045 15.7565 34.5906 15.231C33.9766 14.7056 33.5508 14.017 33.3129 13.1652Z" fill="#767676"/>
<path fill-rule="evenodd" clip-rule="evenodd" d="M0.241256 15.8237H3.95526C4.0885 15.8237 4.19656 15.7216 4.19656 15.5957V11.893C4.19656 11.7671 4.0885 11.665 3.95526 11.665H0.241256C0.10801 11.665 0 11.7671 0 11.893V15.5957C0 15.7216 0.10801 15.8237 0.241256 15.8237Z" fill="#767676"/>
</g>
<defs>
<clipPath id="clip0_301_63">
<rect width="40" height="20" fill="white"/>
</clipPath>
</defs>
</svg>
