<svg width="131" height="32" viewBox="0 0 131 32" fill="none" xmlns="http://www.w3.org/2000/svg">
<path d="M34.1638 11.3154H47.3268V13.7713H42.1511V27.5769H39.3051V13.7713H34.1523V11.3154H34.1638ZM46.7645 15.8025H49.1974V18.0748H49.2433C49.3236 17.7535 49.4728 17.4436 49.6908 17.1452C49.9089 16.8469 50.1728 16.56 50.4827 16.319C50.7925 16.0665 51.1368 15.8714 51.5155 15.7107C51.8942 15.5615 52.2844 15.4812 52.6746 15.4812C52.973 15.4812 53.191 15.4927 53.3058 15.5042C53.4205 15.5156 53.5353 15.5386 53.6615 15.5501V18.0518C53.4779 18.0174 53.2943 17.9945 53.0992 17.9715C52.9041 17.9486 52.7205 17.9371 52.5369 17.9371C52.1008 17.9371 51.6877 18.0289 51.2975 18.201C50.9073 18.3732 50.5745 18.6371 50.2876 18.9699C50.0007 19.3142 49.7712 19.7273 49.599 20.2323C49.4269 20.7372 49.3466 21.311 49.3466 21.9651V27.5654H46.753V15.8025H46.7645ZM65.5851 27.5769H63.0374V25.9358H62.9915C62.6702 26.5326 62.1997 27.0031 61.5685 27.3589C60.9373 27.7146 60.2946 27.8982 59.6405 27.8982C58.0913 27.8982 56.9666 27.5195 56.278 26.7506C55.5895 25.9817 55.2452 24.8227 55.2452 23.2734V15.8025H57.8388V23.0209C57.8388 24.0538 58.0339 24.7882 58.4355 25.2129C58.8257 25.6375 59.388 25.8555 60.0996 25.8555C60.6504 25.8555 61.098 25.7752 61.4652 25.603C61.8324 25.4309 62.1308 25.2129 62.3488 24.926C62.5784 24.6505 62.739 24.3062 62.8423 23.9161C62.9456 23.5259 62.9915 23.1013 62.9915 22.6422V15.814H65.5851V27.5769ZM70.0033 23.8013C70.0837 24.5587 70.3706 25.0866 70.864 25.3965C71.369 25.6948 71.9657 25.8555 72.6658 25.8555C72.9068 25.8555 73.1822 25.8326 73.492 25.7981C73.8019 25.7637 74.1003 25.6834 74.3642 25.5801C74.6396 25.4768 74.8577 25.3161 75.0413 25.1096C75.2134 24.903 75.2938 24.6391 75.2823 24.3062C75.2708 23.9734 75.1446 23.698 74.9151 23.4915C74.6855 23.2734 74.3986 23.1127 74.0429 22.975C73.6871 22.8488 73.2855 22.734 72.8264 22.6422C72.3674 22.5504 71.9083 22.4471 71.4378 22.3439C70.9558 22.2406 70.4853 22.1029 70.0378 21.9537C69.5902 21.8045 69.1885 21.5979 68.8328 21.334C68.477 21.0815 68.1901 20.7487 67.9836 20.347C67.7655 19.9454 67.6622 19.4519 67.6622 18.8552C67.6622 18.2125 67.8229 17.6846 68.1327 17.2485C68.4426 16.8124 68.8443 16.4681 69.3148 16.2042C69.7968 15.9403 70.3247 15.7566 70.9099 15.6419C71.4952 15.5386 72.0575 15.4812 72.5854 15.4812C73.1937 15.4812 73.7789 15.5501 74.3298 15.6763C74.8806 15.8025 75.3856 16.0091 75.8331 16.3075C76.2807 16.5944 76.6479 16.9731 76.9463 17.4321C77.2447 17.8912 77.4283 18.4535 77.5086 19.1076H74.8003C74.6741 18.4879 74.3986 18.0633 73.9511 17.8567C73.5035 17.6387 72.9871 17.5354 72.4133 17.5354C72.2297 17.5354 72.0116 17.5469 71.7592 17.5813C71.5067 17.6157 71.2772 17.6731 71.0476 17.7535C70.8296 17.8338 70.646 17.96 70.4853 18.1207C70.3361 18.2814 70.2558 18.4879 70.2558 18.7519C70.2558 19.0732 70.3706 19.3257 70.5886 19.5208C70.8066 19.7159 71.0935 19.8765 71.4493 20.0142C71.8051 20.1405 72.2067 20.2552 72.6658 20.347C73.1248 20.4388 73.5953 20.5421 74.0773 20.6454C74.5478 20.7487 75.0069 20.8864 75.4659 21.0356C75.9249 21.1848 76.3266 21.3913 76.6824 21.6553C77.0381 21.9192 77.325 22.2406 77.5431 22.6308C77.7611 23.0209 77.8759 23.5144 77.8759 24.0882C77.8759 24.7882 77.7152 25.3735 77.3939 25.867C77.0725 26.349 76.6594 26.7506 76.1545 27.049C75.6495 27.3474 75.0757 27.5769 74.456 27.7146C73.8363 27.8523 73.2166 27.9212 72.6084 27.9212C71.8624 27.9212 71.1739 27.8409 70.5427 27.6687C69.9115 27.4966 69.3607 27.2441 68.9016 26.9113C68.4426 26.567 68.0754 26.1424 67.8114 25.6375C67.5475 25.1325 67.4098 24.5243 67.3868 23.8243H70.0033V23.8013ZM78.5644 15.8025H80.5268V12.2679H83.1204V15.8025H85.4615V17.742H83.1204V24.0308C83.1204 24.3062 83.1319 24.5358 83.1548 24.7423C83.1778 24.9374 83.2351 25.1096 83.3155 25.2473C83.3958 25.385 83.522 25.4883 83.6942 25.5571C83.8663 25.626 84.0844 25.6604 84.3827 25.6604C84.5664 25.6604 84.75 25.6604 84.9336 25.6489C85.1172 25.6375 85.3008 25.6145 85.4844 25.5686V27.5769C85.1975 27.6113 84.9106 27.6343 84.6467 27.6687C84.3713 27.7031 84.0958 27.7146 83.8089 27.7146C83.1204 27.7146 82.5695 27.6458 82.1564 27.5195C81.7433 27.3933 81.4105 27.1982 81.1809 26.9457C80.9399 26.6933 80.7908 26.3834 80.699 26.0047C80.6186 25.626 80.5612 25.1899 80.5498 24.7079V17.7649H78.5874V15.8025H78.5644ZM87.2976 15.8025H89.7535V17.3977H89.7994C90.1666 16.7091 90.6716 16.2272 91.3257 15.9288C91.9798 15.6304 92.6799 15.4812 93.4488 15.4812C94.3783 15.4812 95.1817 15.6419 95.8702 15.9747C96.5588 16.296 97.1326 16.7436 97.5916 17.3174C98.0506 17.8912 98.3834 18.5568 98.613 19.3142C98.8425 20.0716 98.9572 20.8864 98.9572 21.7471C98.9572 22.5389 98.854 23.3078 98.6474 24.0423C98.4408 24.7882 98.131 25.4424 97.7178 26.0162C97.3047 26.59 96.7768 27.0375 96.1342 27.3818C95.4915 27.7261 94.7456 27.8982 93.8734 27.8982C93.4947 27.8982 93.116 27.8638 92.7373 27.7949C92.3586 27.7261 91.9913 27.6113 91.647 27.4621C91.3028 27.313 90.97 27.1179 90.6831 26.8769C90.3847 26.6359 90.1437 26.3604 89.9371 26.0506H89.8912V31.9263H87.2976V15.8025ZM96.3637 21.7012C96.3637 21.1733 96.2948 20.6569 96.1571 20.1519C96.0194 19.647 95.8128 19.2109 95.5374 18.8207C95.262 18.4305 94.9177 18.1207 94.516 17.8912C94.1029 17.6617 93.6324 17.5354 93.1045 17.5354C92.0143 17.5354 91.188 17.9141 90.6372 18.6715C90.0863 19.429 89.8109 20.4388 89.8109 21.7012C89.8109 22.298 89.8797 22.8488 90.0289 23.3537C90.1781 23.8587 90.3847 24.2948 90.6831 24.662C90.97 25.0292 91.3142 25.3161 91.7159 25.5227C92.1176 25.7407 92.5881 25.844 93.116 25.844C93.7127 25.844 94.2062 25.7178 94.6193 25.4768C95.0325 25.2358 95.3653 24.9145 95.6292 24.5358C95.8932 24.1456 96.0882 23.7095 96.203 23.216C96.3063 22.7226 96.3637 22.2176 96.3637 21.7012ZM100.943 11.3154H103.536V13.7713H100.943V11.3154ZM100.943 15.8025H103.536V27.5769H100.943V15.8025ZM105.854 11.3154H108.448V27.5769H105.854V11.3154ZM116.401 27.8982C115.46 27.8982 114.622 27.7376 113.888 27.4277C113.153 27.1179 112.533 26.6818 112.017 26.1424C111.512 25.5916 111.122 24.9374 110.858 24.18C110.594 23.4226 110.456 22.5848 110.456 21.6782C110.456 20.7831 110.594 19.9568 110.858 19.1994C111.122 18.442 111.512 17.7879 112.017 17.237C112.522 16.6862 113.153 16.2616 113.888 15.9517C114.622 15.6419 115.46 15.4812 116.401 15.4812C117.342 15.4812 118.18 15.6419 118.914 15.9517C119.648 16.2616 120.268 16.6977 120.785 17.237C121.29 17.7879 121.68 18.442 121.944 19.1994C122.208 19.9568 122.345 20.7831 122.345 21.6782C122.345 22.5848 122.208 23.4226 121.944 24.18C121.68 24.9374 121.29 25.5916 120.785 26.1424C120.28 26.6933 119.648 27.1179 118.914 27.4277C118.18 27.7376 117.342 27.8982 116.401 27.8982ZM116.401 25.844C116.975 25.844 117.479 25.7178 117.904 25.4768C118.329 25.2358 118.673 24.9145 118.948 24.5243C119.224 24.1341 119.419 23.6865 119.557 23.1931C119.683 22.6996 119.752 22.1947 119.752 21.6782C119.752 21.1733 119.683 20.6798 119.557 20.1749C119.43 19.6699 119.224 19.2339 118.948 18.8437C118.673 18.4535 118.329 18.1436 117.904 17.9026C117.479 17.6617 116.975 17.5354 116.401 17.5354C115.827 17.5354 115.322 17.6617 114.897 17.9026C114.473 18.1436 114.129 18.465 113.853 18.8437C113.578 19.2339 113.383 19.6699 113.245 20.1749C113.119 20.6798 113.05 21.1733 113.05 21.6782C113.05 22.1947 113.119 22.6996 113.245 23.1931C113.371 23.6865 113.578 24.1341 113.853 24.5243C114.129 24.9145 114.473 25.2358 114.897 25.4768C115.322 25.7293 115.827 25.844 116.401 25.844ZM123.103 15.8025H125.065V12.2679H127.659V15.8025H130V17.742H127.659V24.0308C127.659 24.3062 127.67 24.5358 127.693 24.7423C127.716 24.9374 127.773 25.1096 127.854 25.2473C127.934 25.385 128.06 25.4883 128.232 25.5571C128.405 25.626 128.623 25.6604 128.921 25.6604C129.105 25.6604 129.288 25.6604 129.472 25.6489C129.656 25.6375 129.839 25.6145 130.023 25.5686V27.5769C129.736 27.6113 129.449 27.6343 129.185 27.6687C128.91 27.7031 128.634 27.7146 128.347 27.7146C127.659 27.7146 127.108 27.6458 126.695 27.5195C126.282 27.3933 125.949 27.1982 125.719 26.9457C125.478 26.6933 125.329 26.3834 125.237 26.0047C125.157 25.626 125.1 25.1899 125.088 24.7079V17.7649H123.126V15.8025H123.103Z" fill="#191919"/>
<path d="M31.1344 11.3153H19.2452L15.5729 0L11.8891 11.3153L0 11.3038L9.62835 18.3042L5.94456 29.6081L15.5729 22.6192L25.1898 29.6081L21.5175 18.3042L31.1344 11.3153Z" fill="#00B67A"/>
<path d="M22.3436 20.8638L21.5173 18.3047L15.5728 22.6197L22.3436 20.8638Z" fill="#005128"/>
</svg>
